<svg width="512" height="512" viewBox="0 0 512 512" style="color:currentColor" xmlns="http://www.w3.org/2000/svg" class="h-full w-full"><rect width="512" height="512" x="0" y="0" rx="30" fill="transparent" stroke="transparent" stroke-width="0" stroke-opacity="100%" paint-order="stroke"></rect><svg width="256px" height="256px" viewBox="0 0 24 24" fill="currentColor" x="128" y="128" role="img" style="display:inline-block;vertical-align:middle" xmlns="http://www.w3.org/2000/svg"><g fill="currentColor"><path fill="currentColor" d="M16 21q-.825 0-1.413-.588T14 19v-4q0-.825.588-1.413T16 13h4q.825 0 1.413.588T22 15v4q0 .825-.588 1.413T20 21h-4Zm0-2h4v-4h-4v4ZM3 18q-.425 0-.713-.288T2 17q0-.425.288-.713T3 16h7q.425 0 .713.288T11 17q0 .425-.288.713T10 18H3Zm13-7q-.825 0-1.413-.588T14 9V5q0-.825.588-1.413T16 3h4q.825 0 1.413.588T22 5v4q0 .825-.588 1.413T20 11h-4Zm0-2h4V5h-4v4ZM3 8q-.425 0-.713-.288T2 7q0-.425.288-.713T3 6h7q.425 0 .713.288T11 7q0 .425-.288.713T10 8H3Zm15 9Zm0-10Z"/></g></svg></svg>