<?xml version="1.0" encoding="UTF-8"?>
<svg version="1.1" viewBox="0 0 2000 2000" width="1280" height="1280" xmlns="http://www.w3.org/2000/svg">
<path transform="translate(1224,368)" d="m0 0h216l5 2 7 7 1 3v849l-2 35-5 35-6 28-7 25-10 28-13 29-13 24-8 12-12 17-9 12-9 11-9 10-7 7-5 6-8 7-8 8-11 9-18 14-17 12-22 13-18 10-29 14-27 11-31 10-28 7-41 8-37 5-35 3-22 1h-22l-39-2-40-5-35-6-36-9-30-10-31-12-27-12-24-14-22-13-19-13-12-10-10-8-16-15-13-12-14-15-18-22-11-16-10-15-9-16-12-23-13-32-7-21-8-32-5-30-3-28-1-19v-631h239l1 1 1 614 3 21 6 23 10 25 10 19 12 17 8 10 17 17 11 9 15 11 17 10 17 8 25 9 19 5 34 6 9 1h32l28-2 29-5 25-6 21-7 24-11 15-8 12-8 10-8 12-11 12-12 11-15 9-16 7-15 7-22 4-23 1-20 1-837 3-5 6-5z" fill="#2CCD62"/>
<path transform="translate(507,380)" d="m0 0h226l5 2 2 2v180l-3 3-3 1h-227l-5-3-2-3v-176l4-5z" fill="#2CCD62"/>
</svg>
