<svg xmlns="http://www.w3.org/2000/svg" width="24" height="24" fill="none" id="event"><path fill="#000" fill-rule="evenodd" d="M1.5 5A3.5 3.5 0 0 1 5 1.5h14A3.5 3.5 0 0 1 22.5 5v14a3.5 3.5 0 0 1-3.5 3.5H5A3.5 3.5 0 0 1 1.5 19V5ZM5 2.5A2.5 2.5 0 0 0 2.5 5v14A2.5 2.5 0 0 0 5 21.5h14a2.5 2.5 0 0 0 2.5-2.5V5A2.5 2.5 0 0 0 19 2.5H5Z" clip-rule="evenodd"></path><path fill="#000" fill-rule="evenodd" d="M18 6.5H6v-1h12v1zM11.5 19V9h1v10h-1z" clip-rule="evenodd"></path><path fill="#000" fill-rule="evenodd" d="M17 14.5H7v-1h10v1Z" clip-rule="evenodd"></path></svg>